<svg width="83" height="96" viewBox="0 0 83 96" fill="none" xmlns="http://www.w3.org/2000/svg">
<path d="M73.3014 46.751C70.6759 54.2442 68.1039 61.5746 65.5319 68.8777C64.0852 72.9773 63.201 73.6017 58.968 73.6017C43.7504 73.6017 28.5597 73.6017 13.3421 73.6017C9.40375 73.6017 8.27851 72.0271 9.61808 68.2804C13.6636 56.9049 17.7091 45.5565 21.7814 34.208C23.0406 30.7058 24.1659 29.9185 27.8095 29.9185C43.0806 29.9185 58.3786 29.9185 73.6497 29.9185C77.5077 29.9185 78.8473 31.6832 77.2398 35.294C75.4448 39.3393 75.4715 43.0859 76.8915 47.2669C79.0616 53.6741 80.7227 60.2714 82.5981 66.7601C83.8841 71.2397 82.0087 73.7646 77.4273 73.7646C74.8553 73.7646 72.2566 73.9004 69.6846 73.7103C68.9612 73.656 68.3182 72.7329 67.6216 72.2171C68.3182 71.7013 68.988 70.7782 69.7114 70.751C72.4173 70.561 75.15 70.6967 77.8828 70.6696C79.785 70.6424 80.3476 69.9637 79.8386 68.199C77.856 61.1945 75.8466 54.2171 73.8105 47.2397C73.7837 47.104 73.6229 47.0497 73.3014 46.751ZM74.8821 33.0406C73.9444 32.9863 73.3282 32.932 72.712 32.932C57.8427 32.932 42.9735 32.9592 28.1042 32.8777C26.0681 32.8777 25.1571 33.5836 24.4874 35.4841C20.683 46.4252 16.7446 57.3121 12.8599 68.199C12.6187 68.9049 12.4312 69.6108 12.1901 70.3981C12.7527 70.4524 13.0206 70.5067 13.2885 70.5067C28.774 70.5067 44.2863 70.5067 59.7717 70.5338C61.1917 70.5338 61.9151 69.9909 62.3705 68.6605C63.8976 64.1809 65.5051 59.7284 67.059 55.2759C69.6578 47.9999 72.2298 40.6696 74.8821 33.0406Z" fill="white"/>
<path d="M60.7362 90.9502C62.3169 90.9502 63.9244 90.7873 65.5051 91.0316C66.1749 91.1402 66.7375 91.9818 67.3537 92.4977C66.7107 92.9864 66.1481 93.7466 65.4247 93.9094C64.4334 94.1538 63.335 93.8552 62.3169 94.018C61.6203 94.1266 60.9773 94.6153 60.3343 94.9954C60.1736 95.0769 60.0664 95.3212 59.9057 95.4298C57.5212 96.923 51.3056 95.2941 50.3143 92.6877C49.8053 91.3303 48.9748 91.466 48.0371 91.466C38.0706 91.466 28.0774 91.466 18.111 91.466C13.9583 91.466 11.7346 89.8642 11.681 86.8235C11.6006 83.647 13.8779 81.9366 18.0842 81.9366C23.8711 81.9366 29.6581 81.9366 35.4451 81.9366C38.1778 81.9366 38.3921 81.6923 38.4189 78.923C38.4189 78.1628 38.4189 77.4027 38.4189 76.561C39.5442 76.561 40.4015 76.561 41.4731 76.561C41.4731 77.7828 41.4999 78.8959 41.4731 80.009C41.366 83.2126 39.6245 84.9773 36.4631 84.9773C30.4083 85.0045 24.3266 84.9773 18.2717 84.9773C17.6555 84.9773 16.9054 84.7873 16.4231 85.0588C15.7801 85.3846 14.8156 86.199 14.896 86.6334C15.0299 87.3122 15.8605 87.8823 16.5035 88.3981C16.7178 88.561 17.1733 88.4524 17.5216 88.4524C27.7023 88.4524 37.8831 88.4253 48.0638 88.4524C49.2159 88.4524 49.9392 88.3438 50.3947 87.0135C51.0109 85.276 52.5112 84.4072 54.3063 84.2986C55.7798 84.2171 57.2265 84.2714 58.7001 84.2714C59.0483 84.2714 59.5842 84.2443 59.6913 84.4343C60.9773 86.6334 63.0671 85.7647 64.8621 85.8732C66.0141 85.9547 67.3001 85.8733 67.2733 87.4751C67.2465 89.1312 65.8534 88.914 64.7817 88.9683C63.8172 88.9954 62.7992 88.8325 61.8615 89.0226C61.2988 89.1312 60.8434 89.7828 60.3343 90.19C60.4683 90.4886 60.6023 90.7058 60.7362 90.9502Z" fill="white"/>
<path d="M34.3199 26.9594C32.2301 26.9594 30.0868 26.9594 27.9167 26.9594C22.9067 26.9594 21.1385 28.1811 19.2095 32.9322C19.1023 33.1765 18.9684 33.4209 18.8344 33.6381C14.0119 31.2761 11.949 25.1946 14.1191 20.0091C16.316 14.7693 22.1565 12.1358 27.5148 13.982C32.8463 15.801 35.8738 21.4209 34.3199 26.9594Z" fill="white"/>
<path d="M4.87605 22.8055C6.00129 22.8055 7.15332 22.6155 8.19819 22.8598C8.84119 23.0227 9.35023 23.81 9.91285 24.3259C9.37702 24.8417 8.86798 25.7919 8.30536 25.8462C6.08167 26.0363 3.83118 26.0363 1.63428 25.8462C1.04487 25.7648 0.53583 24.8146 0 24.2716C0.589413 23.7829 1.09845 23.0227 1.74145 22.8598C2.73273 22.6155 3.83118 22.8055 4.87605 22.8055Z" fill="white"/>
<path d="M13.2617 34.0181C13.5296 34.2081 14.119 34.4525 14.3066 34.8868C14.4673 35.2941 14.4405 36.0814 14.1726 36.4072C12.458 38.2534 10.7165 40.0452 8.86791 41.7285C8.5732 42 7.58192 41.9457 7.20684 41.647C6.83175 41.3484 6.53705 40.2896 6.72459 40.0452C8.59999 38.009 10.5826 36.0814 12.5383 34.1267C12.6455 34.0452 12.833 34.0724 13.2617 34.0181Z" fill="white"/>
<path d="M42.9735 25.9003C41.9286 25.9003 40.8302 26.0904 39.8657 25.846C39.2227 25.6832 38.7672 24.8687 38.2046 24.3528C38.7672 23.837 39.2762 22.9411 39.8657 22.9139C42.0894 22.751 44.313 22.751 46.5367 22.9139C47.0726 22.9411 47.5548 23.8098 48.0639 24.2985C47.5548 24.8415 47.0994 25.7103 46.4832 25.846C45.3847 26.0632 44.1791 25.9003 42.9735 25.9003Z" fill="white"/>
<path d="M41.6874 8.11767C41.3392 8.68781 41.1516 9.14934 40.8301 9.47514C39.3834 10.9955 37.9634 12.5702 36.3559 13.9276C35.8469 14.3349 34.802 14.0905 33.9983 14.1448C34.0787 13.3846 33.8643 12.3801 34.2662 11.9186C35.7129 10.2082 37.3472 8.63351 38.9815 7.11315C39.3298 6.78735 40.1603 6.70591 40.6694 6.8688C41.098 7.0317 41.3659 7.68328 41.6874 8.11767Z" fill="white"/>
<path d="M7.95703 6.40723C8.51966 6.78732 9.05548 7.00451 9.43057 7.3846C10.9309 8.85067 12.4848 10.2624 13.7976 11.8914C14.1994 12.3801 13.9583 13.4389 14.0387 14.2262C13.2885 14.1719 12.2973 14.4163 11.8418 14.0362C10.1807 12.5701 8.62682 10.9412 7.15329 9.28505C6.805 8.90496 6.67104 8.11763 6.77821 7.6018C6.88537 7.16741 7.50158 6.86876 7.95703 6.40723Z" fill="white"/>
<path d="M22.5316 4.88688C22.5316 3.82805 22.3441 2.74208 22.5852 1.73756C22.746 1.08597 23.5229 0.570136 24.0052 0C24.5142 0.542986 25.4251 1.03167 25.4787 1.62896C25.6395 3.88235 25.6395 6.13575 25.4787 8.38914C25.4251 8.95928 24.5142 9.47511 24.0052 10.0181C23.5229 9.44796 22.746 8.93213 22.612 8.28054C22.3709 7.19457 22.5316 6.02715 22.5316 4.88688Z" fill="white"/>
<path d="M46.8584 59.2941C45.9743 61.8733 45.3045 64.0724 44.474 66.2444C44.3132 66.6788 43.6166 67.2217 43.1612 67.2217C39.7051 67.3032 36.2222 67.276 32.4446 67.276C33.3019 64.724 34.0521 62.4163 34.9094 60.1358C35.0434 59.7557 35.7131 59.3484 36.115 59.3213C39.5711 59.267 43.0272 59.2941 46.8584 59.2941Z" fill="white"/>
<path d="M35.4451 47.6199C34.5877 50.1448 33.918 52.371 33.0874 54.5158C32.8999 55.0045 32.1229 55.5475 31.6139 55.5475C28.2114 55.6289 24.8088 55.6018 21.0312 55.6018C21.9154 52.9954 22.7191 50.6063 23.5764 48.2715C23.6836 47.9457 24.3266 47.647 24.7017 47.647C28.1846 47.6199 31.6407 47.6199 35.4451 47.6199Z" fill="white"/>
<path d="M31.48 59.2941C30.5959 61.9276 29.8993 64.1267 29.0688 66.2987C28.9081 66.7331 28.1847 67.2217 27.7292 67.2217C24.3267 67.3032 20.8974 67.276 17.093 67.276C17.9503 64.724 18.7273 62.362 19.5846 60.0272C19.7186 59.7014 20.308 59.3484 20.6831 59.3484C24.166 59.267 27.6221 59.2941 31.48 59.2941Z" fill="white"/>
<path d="M51.7344 55.6017C52.6185 53.0225 53.3151 50.8234 54.1456 48.6515C54.3064 48.2171 54.9761 47.6741 55.4316 47.6741C58.8877 47.5927 62.3706 47.6198 66.175 47.6198C65.3177 50.1719 64.5675 52.4796 63.7102 54.7601C63.5762 55.1402 62.9064 55.5474 62.4778 55.5474C58.9949 55.6289 55.5388 55.6017 51.7344 55.6017Z" fill="white"/>
<path d="M36.3828 55.6019C37.2669 52.9684 37.9903 50.715 38.8476 48.4888C38.9816 48.1087 39.6246 47.6743 40.0532 47.6743C43.5361 47.62 47.019 47.6472 50.7966 47.6472C49.9393 50.1721 49.2159 52.5069 48.3586 54.8146C48.2246 55.1947 47.5281 55.6019 47.0994 55.6019C43.6701 55.6291 40.2408 55.6019 36.3828 55.6019Z" fill="white"/>
<path d="M40.3748 43.8732C41.2321 41.3212 41.9019 39.1221 42.7324 36.9501C42.8932 36.4886 43.5629 35.9728 44.0184 35.9456C47.5013 35.8642 50.9574 35.8913 54.7886 35.8913C53.9312 38.4433 53.1811 40.751 52.297 43.0316C52.163 43.4117 51.4932 43.8189 51.0913 43.8189C47.6352 43.9004 44.1524 43.8732 40.3748 43.8732Z" fill="white"/>
<path d="M70.1669 35.8915C69.256 38.5249 68.5326 40.8055 67.6753 43.0046C67.5413 43.3847 66.8983 43.8191 66.4696 43.8191C63.0135 43.8734 59.5306 43.8462 55.6995 43.8462C56.5836 41.2399 57.3605 38.8779 58.2179 36.543C58.3518 36.2173 58.968 35.8915 59.3431 35.8915C62.826 35.8643 66.3089 35.8915 70.1669 35.8915Z" fill="white"/>
<path d="M47.7693 67.276C48.6534 64.6697 49.3768 62.3891 50.2073 60.19C50.3413 59.8099 50.9843 59.3755 51.4129 59.3484C54.869 59.2941 58.3519 59.3212 62.1831 59.3212C61.299 61.9276 60.522 64.2896 59.6647 66.6244C59.5575 66.9502 58.9413 67.2488 58.5395 67.2488C55.1102 67.276 51.6273 67.276 47.7693 67.276Z" fill="white"/>
<path d="M39.4371 35.8913C38.553 38.5248 37.8296 40.8053 36.9723 43.0044C36.8115 43.4117 36.0613 43.8189 35.5791 43.8461C32.1766 43.9275 28.7741 43.8732 25.05 43.8732C25.9074 41.294 26.6575 38.932 27.5417 36.5972C27.6756 36.2442 28.399 35.9185 28.8544 35.9185C32.257 35.8642 35.6595 35.8913 39.4371 35.8913Z" fill="white"/>
</svg>
