<svg width="84" height="81" viewBox="0 0 84 81" fill="none" xmlns="http://www.w3.org/2000/svg">
<path d="M2.87671 34.547C1.88093 31.9184 0.995785 29.5328 0 26.8822C4.58061 24.2315 8.98419 21.5366 13.5205 19.0627C15.5121 17.9803 16.5743 16.7875 16.353 14.3578C16.1538 12.1268 15.5564 9.0785 16.7071 7.79735C18.6986 5.54428 21.863 4.28521 24.6512 2.84943C25.2929 2.5181 26.6207 2.98197 27.3509 3.49001C30.9579 5.85352 34.1222 7.22303 38.9463 5.21294C45.1201 2.65063 52.0242 1.9217 58.5522 0.198765C60.4552 -0.30928 61.3846 0.220853 62.4247 1.70081C68.9526 10.9119 75.5248 20.0567 82.1412 29.2015C85.04 33.2217 84.5753 35.7177 80.1718 38.28C71.8957 43.1175 63.5975 47.9108 55.2993 52.7041C51.8915 54.67 48.4837 56.6359 44.8103 58.7564C39.6101 51.5334 34.5205 44.4207 29.3646 37.3081C27.5279 34.7679 26.0674 31.1232 23.5669 30.1071C21.2434 29.1573 17.7692 31.0128 14.804 31.6975C11.02 32.559 7.19178 33.5088 2.87671 34.547ZM71.1212 21.8238C68.7977 23.1933 66.6955 24.4082 64.4384 25.7556C66.4299 28.6934 68.2887 31.4104 70.2139 34.2378C72.6702 32.802 74.7724 31.565 77.0074 30.2397C74.9494 27.2798 73.1128 24.6512 71.1212 21.8238ZM62.6902 23.0166C64.9694 21.6692 67.0495 20.4322 69.3066 19.0848C67.3151 16.2132 65.4563 13.5626 63.4868 10.7131C61.2519 11.9942 59.1718 13.187 56.8925 14.4682C58.9283 17.4723 60.7429 20.145 62.6902 23.0166ZM43.7482 33.9506C41.8008 31.0128 39.942 28.2517 38.039 25.358C35.6712 26.7717 33.5912 27.9866 31.3562 29.3119C33.4141 32.2719 35.2729 34.9446 37.1981 37.7278C39.4331 36.4687 41.4468 35.2759 43.7482 33.9506ZM47.2002 35.6956C49.236 38.6997 51.0285 41.3504 52.9758 44.2219C55.2993 42.8524 57.3351 41.6375 59.5258 40.3343C57.4457 37.3744 55.5869 34.7458 53.6618 31.9847C51.4489 33.2438 49.5458 34.3482 47.2002 35.6956ZM51.3383 45.1718C49.3024 42.1677 47.51 39.517 45.5627 36.6675C43.2835 38.0371 41.2255 39.2519 39.0569 40.5331C41.1591 43.5151 43.0179 46.1437 44.921 48.8606C47.0896 47.6016 49.0148 46.4971 51.3383 45.1718ZM48.8156 19.1731C50.8957 22.1772 52.7324 24.85 54.6575 27.6553C56.8483 26.352 58.8398 25.1592 60.9863 23.8781C58.9726 20.9182 57.1581 18.2675 55.255 15.4622C53.02 16.7434 51.0948 17.8699 48.8156 19.1731ZM39.7208 24.5407C41.7123 27.5006 43.5711 30.2397 45.4521 33.0229C47.7534 31.6534 49.6786 30.5268 51.8251 29.2457C49.8335 26.352 47.9305 23.613 45.9831 20.7856C43.7703 22.111 41.8672 23.2375 39.7208 24.5407ZM56.4942 30.3501C58.5743 33.31 60.4331 35.9386 62.4025 38.7439C64.549 37.5069 66.4299 36.4025 68.5543 35.1876C66.5406 32.2056 64.7482 29.5328 62.8008 26.6392C60.7208 27.8541 58.8177 28.9806 56.4942 30.3501Z" fill="#EC2028"/>
<path d="M5.50999 39.274C6.79345 38.8985 7.94413 38.5671 9.58165 38.1033C9.58165 43.8243 9.75867 49.1919 9.51526 54.5153C9.38249 57.1881 10.3561 58.5355 12.6133 59.7504C17.5701 62.3569 22.372 65.2726 27.7492 68.3651C27.7492 63.8148 27.7492 59.7283 27.7492 55.0455C30.6038 56.7021 32.9715 57.9391 35.1844 59.4191C35.7376 59.7946 36.0031 60.9211 36.0474 61.7163C36.158 63.8589 36.0917 66.0016 36.0917 68.1442C36.0917 73.2909 37.0653 74.7929 41.8451 76.4275C42.6196 76.6926 43.7924 76.3612 44.5669 75.9195C54.06 70.4856 63.5311 65.0517 72.8914 59.397C74.0421 58.7122 74.8166 56.9009 75.1264 55.4872C75.5026 53.7643 75.4141 51.8647 75.1928 50.0975C74.7945 47.1155 76.3435 45.8565 79.1981 45.0171C79.1981 49.965 79.2645 54.6479 79.1317 59.3307C79.1096 60.0817 78.2466 61.0757 77.4942 61.5175C66.5184 67.9675 55.5205 74.3953 44.4341 80.6686C43.4826 81.1987 41.6238 80.9999 40.6059 80.4256C29.5195 74.1744 18.4773 67.8128 7.47943 61.385C6.59429 60.8769 5.62063 59.6179 5.59851 58.668C5.44361 52.2623 5.50999 45.8565 5.50999 39.274Z" fill="#EC2028"/>
<path d="M15.9546 37.043C23.1685 39.5611 24.1643 41.2619 22.9251 49.0372C15.7554 46.6075 14.7375 44.8404 15.9546 37.043Z" fill="#EC2028"/>
</svg>
