<svg width="65" height="66" viewBox="0 0 65 66" fill="none" xmlns="http://www.w3.org/2000/svg">
<path d="M51.7677 31.6556C52.8979 32.7968 54.028 33.9379 55.1739 35.0791C55.943 35.8451 56.4767 35.8451 57.2615 35.0635C57.858 34.4694 58.4388 33.8598 59.051 33.297C59.5846 32.7968 59.6788 32.2653 59.4277 31.5931C58.894 30.108 58.4388 28.5917 57.9051 27.1066C57.7481 26.6689 57.7952 26.4031 58.1876 26.1061C59.2236 25.3245 60.134 24.4491 60.4166 23.0891C60.8247 21.1819 59.9457 19.2279 58.219 18.3212C56.4767 17.3989 54.3576 17.7428 53.0234 19.181C52.8037 19.4154 52.5996 19.6656 52.3799 19.9157C51.8305 20.5722 51.2026 20.6504 50.4963 20.1502C50.3864 20.072 50.3236 19.8844 50.2765 19.7437C49.9626 18.5088 49.6329 17.2738 49.3504 16.0232C49.3033 15.8356 49.4289 15.5073 49.5702 15.4136C51.9718 13.9597 54.185 12.2558 56.1942 10.3018C60.652 13.819 64.9372 24.027 64.9529 31.1866C63.8698 31.1866 62.7868 31.1866 61.6723 31.1866C61.6723 31.9683 61.6723 32.6561 61.6723 33.4221C62.7397 33.4221 63.8228 33.4221 64.9843 33.4221C64.5919 41.504 61.7037 48.4448 56.3511 54.307C54.7501 53.0407 53.1961 51.7745 51.6107 50.5552C50.9986 50.0862 50.3393 49.6798 49.6643 49.3046C49.2719 49.0857 49.2405 48.8513 49.3347 48.4604C49.8213 46.522 50.2922 44.5836 50.7945 42.567C49.9783 42.4263 49.2876 42.3013 48.5656 42.1762C48.1104 44.1146 47.6709 46.0062 47.2157 47.9602C43.37 46.1312 39.4144 45.0526 35.2077 44.7243C37.2169 42.7234 39.1789 40.7693 41.1881 38.784C40.5603 38.19 40.0423 37.721 39.5557 37.2676C37.7035 39.1435 35.7885 41.0663 33.8892 43.0047C33.8107 42.9578 33.7479 42.9109 33.6694 42.864C33.6694 39.7532 33.6694 36.6424 33.6694 33.4533C35.1135 33.4533 36.5576 33.4533 38.0488 33.4533C38.0488 32.6874 38.0488 31.9995 38.0488 31.2335C36.6047 31.2335 35.1449 31.2335 33.638 31.2335C33.638 27.4661 33.638 23.7769 33.638 20.0251C38.3627 19.8375 42.852 18.7589 47.1686 16.6798C47.3569 17.3676 47.5296 18.0242 47.6866 18.6651C47.7179 18.8214 47.7336 18.9777 47.7807 19.2435C47.3098 19.1028 46.9174 18.9934 46.5407 18.8527C45.9756 18.6495 45.5047 18.7433 45.0652 19.181C44.3902 19.8688 43.6996 20.5253 43.0403 21.2132C42.4282 21.8385 42.4439 22.4012 43.0717 23.0265C44.249 24.2146 45.4419 25.387 46.6192 26.5595C46.1483 27.4349 45.5518 27.8413 44.5315 27.7788C42.8834 27.6694 41.2195 27.7631 39.5557 27.7475C38.9592 27.7475 38.4255 27.8413 38.1744 28.4666C37.9075 29.0919 38.2528 29.5296 38.6767 29.9361C39.6028 30.8427 40.5289 31.765 41.4707 32.703C41.1253 33.1251 40.7957 33.4846 40.4975 33.8754C40.0109 34.4851 40.0266 35.0009 40.5603 35.5481C41.2509 36.2672 41.973 36.9706 42.695 37.6741C43.2444 38.2056 43.7624 38.2212 44.3746 37.7366C44.7513 37.4396 45.128 37.1113 45.5518 36.7674C46.4936 37.7054 47.4197 38.6277 48.3301 39.55C48.7382 39.9721 49.162 40.316 49.8056 40.0502C50.4649 39.7845 50.5434 39.2217 50.5434 38.612C50.5277 37.0019 50.6061 35.3918 50.512 33.7973C50.4806 32.7968 50.7631 32.109 51.7677 31.6556Z" fill="#3D3D3D"/>
<path d="M8.63318 10.4112C10.972 12.1933 13.2951 13.9754 15.7438 15.8356C14.3154 20.6973 13.5462 25.8716 13.4364 31.1867C8.93142 31.1867 4.48925 31.1867 0.0470886 31.1867C0.125572 24.3553 3.09225 16.0858 8.63318 10.4112Z" fill="#3D3D3D"/>
<path d="M13.4364 33.4846C13.5305 38.784 14.2997 43.9427 15.7438 48.8356C13.3422 50.6646 11.0034 52.4311 8.58609 54.2757C3.28061 48.4761 0.392417 41.5353 0 33.4846C4.48925 33.4846 8.91572 33.4846 13.4364 33.4846Z" fill="#3D3D3D"/>
<path d="M31.362 20.2127C31.362 23.7925 31.362 27.4505 31.362 31.171C26.1507 31.171 20.9708 31.171 15.6967 31.171C15.7752 26.2624 16.4501 21.4633 17.7373 16.8517C19.9819 17.6021 22.148 18.4619 24.3927 19.009C26.6373 19.5718 28.9761 19.8219 31.362 20.2127Z" fill="#3D3D3D"/>
<path d="M17.7687 47.8039C16.7484 45.2089 15.4926 36.486 15.7438 33.5002C20.9237 33.5002 26.1193 33.5002 31.3463 33.5002C31.3463 37.1895 31.3463 40.8787 31.3463 44.4586C29.0232 44.8494 26.7001 45.0839 24.4398 45.631C22.1951 46.1938 20.0133 47.0535 17.7687 47.8039Z" fill="#3D3D3D"/>
<path d="M31.3463 17.7897C26.8256 17.6177 22.5718 16.5391 18.4122 14.4912C18.993 13.1156 19.511 11.7399 20.1545 10.4112C21.6614 7.22215 23.5764 4.33015 26.4332 2.14162C27.689 1.18804 29.086 0.484582 30.6399 0.156302C30.8597 0.109405 31.0951 0.0781398 31.362 0.046875C31.3463 5.97156 31.3463 11.8493 31.3463 17.7897Z" fill="#3D3D3D"/>
<path d="M46.4622 14.5225C43.3229 16.3046 37.1855 17.8678 33.6694 17.7584C33.6694 11.8806 33.6694 6.01847 33.6694 0C34.3601 0.187589 35.035 0.312648 35.6786 0.562766C37.986 1.43818 39.7754 3.01705 41.3451 4.87731C43.4014 7.34723 45.6303 11.5367 46.4622 14.5225Z" fill="#3D3D3D"/>
<path d="M33.6537 46.8816C38.2058 47.0692 42.4282 48.1322 46.5878 50.1956C45.7559 51.9934 45.0181 53.7911 44.1234 55.5263C42.8049 58.09 41.1253 60.388 38.865 62.2326C37.5308 63.3269 36.0553 64.1397 34.3601 64.5149C34.1403 64.5618 33.9049 64.5931 33.6537 64.64C33.6537 58.6997 33.6537 52.8219 33.6537 46.8816Z" fill="#3D3D3D"/>
<path d="M31.3463 48.6324C31.3463 53.9474 31.3463 59.2468 31.3463 64.6556C27.0454 63.9052 24.3927 61.0758 22.1323 57.8086C25.2246 54.729 28.2697 51.6963 31.3463 48.6324Z" fill="#3D3D3D"/>
<path d="M24.1572 1.10992C20.4999 4.53342 18.2552 8.80106 16.5129 13.4595C14.2369 12.1151 12.212 10.5363 10.3441 8.67601C14.3311 4.98676 18.9145 2.45431 24.1572 1.10992Z" fill="#3D3D3D"/>
<path d="M40.8899 63.577C44.5629 60.1691 46.7918 55.8858 48.5813 51.0867C50.7003 52.7281 52.7095 54.2913 54.7971 55.9015C50.6846 59.6845 46.1169 62.217 40.8899 63.577Z" fill="#3D3D3D"/>
<path d="M40.937 1.10992C46.1483 2.46994 50.7003 5.00239 54.7815 8.78543C52.7095 10.3956 50.7003 11.9588 48.5813 13.6002C46.8232 8.78543 44.5943 4.51779 40.937 1.10992Z" fill="#3D3D3D"/>
<path d="M43.6368 35.4543C43.3543 35.1729 43.1188 34.9228 42.8363 34.6258C43.935 33.3283 45.0338 32.0308 46.1326 30.7333C48.8952 27.4818 51.6421 24.2458 54.4047 20.9943C55.3622 19.8688 56.7749 19.7437 57.701 20.6817C58.6114 21.604 58.4545 22.9796 57.3557 23.9019C52.9292 27.6224 48.5185 31.343 44.1077 35.0635C43.9664 35.1885 43.8409 35.298 43.6368 35.4543Z" fill="#3D3D3D"/>
<path d="M16.4501 51.2586C17.3919 53.3065 18.3023 55.2918 19.2441 57.3553C18.3651 58.2307 17.4233 59.1843 16.4501 60.1066C16.3403 60.2004 15.9949 60.2004 15.8694 60.1066C14.0015 58.8091 12.1492 57.496 10.2186 56.1359C12.1806 54.1506 14.2212 52.603 16.4501 51.2586Z" fill="#3D3D3D"/>
<path d="M29.3057 47.0535C26.5274 49.8205 23.6549 52.6656 20.7353 55.5888C19.9819 53.8693 19.1971 52.0559 18.4122 50.2582C20.908 48.7262 26.2449 47.1942 29.3057 47.0535Z" fill="#3D3D3D"/>
<path d="M16.4815 63.0611C15.7595 63.8271 15.1473 64.64 14.3939 65.2653C13.0597 66.3596 11.0976 66.1876 9.87322 64.9839C8.63318 63.7802 8.46052 61.8731 9.4965 60.4661C9.82613 60.0284 10.2342 59.6533 10.6267 59.2155C11.2545 59.6845 11.8196 60.1222 12.5574 60.6694C12.1492 60.9976 11.7568 61.2634 11.4429 61.5917C10.9249 62.1388 10.9406 62.8423 11.4272 63.3425C11.9138 63.8271 12.6201 63.8427 13.2009 63.3581C13.2166 63.3425 13.2323 63.3269 13.248 63.3112C13.7032 62.8892 14.1741 62.1232 14.6293 62.1232C15.2572 62.1544 15.8851 62.7328 16.4815 63.0611Z" fill="#3D3D3D"/>
<path d="M24.0787 63.7333C22.1637 63.0142 20.2487 62.3108 18.3337 61.5917C19.1343 60.8101 19.8406 60.1066 20.5156 59.4188C21.6771 60.7631 22.9015 62.1857 24.1258 63.5926C24.1258 63.6395 24.0944 63.6864 24.0787 63.7333Z" fill="#3D3D3D"/>
<path d="M50.2294 22.4481C49.5074 23.3079 48.8481 24.0739 48.2359 24.793C47.3098 23.8707 46.4151 22.9796 45.489 22.0573C46.0384 21.1506 46.1797 21.0881 47.2627 21.4476C48.2202 21.7759 49.162 22.0886 50.2294 22.4481Z" fill="#3D3D3D"/>
<path d="M55.8802 28.0758C56.304 29.342 56.7278 30.5145 57.0889 31.7182C57.136 31.8901 56.9319 32.1559 56.822 32.3435C56.6808 32.5623 56.4924 32.7343 56.3825 32.8906C55.4093 31.9057 54.4989 30.9991 53.5728 30.0455C54.2478 29.4671 55.0326 28.7949 55.8802 28.0758Z" fill="#3D3D3D"/>
<path d="M43.7938 30.0455C43.4641 30.4206 43.2287 30.6864 43.0089 30.9522C42.695 30.6551 42.4125 30.3894 42.0357 30.0455C42.6322 30.0455 43.1188 30.0455 43.7938 30.0455Z" fill="#3D3D3D"/>
<path d="M47.2784 35.3292C47.6238 35.0322 47.9063 34.7977 48.2673 34.5007C48.2673 35.1416 48.2673 35.6262 48.2673 36.2672C47.9063 35.9233 47.6238 35.6575 47.2784 35.3292Z" fill="#3D3D3D"/>
</svg>
