<svg width="61" height="72" viewBox="0 0 61 72" fill="none" xmlns="http://www.w3.org/2000/svg">
<path d="M15.49 71.07C15.12 70.67 14.68 70.32 14.38 69.87C13.38 68.35 12.43 66.78 11.45 65.25C10.48 63.75 9.1 62.95 7.3 62.88C5.45 62.8 3.6 62.71 1.76 62.63C-2.74181e-06 62.55 -0.450003 61.74 0.449997 60.19C3.04 55.71 5.64 51.23 8.23 46.76C8.55 46.2 8.86 45.63 9.21 45.08C9.53 44.59 9.37 44.34 8.87 44.16C8.11 43.88 7.35 43.61 6.63 43.26C5.38 42.64 5 41.52 5.17 40.23C5.32 39.06 5.55 37.9 5.81 36.76C6.16 35.21 5.79 33.89 4.78 32.7C4.08 31.87 3.39 31.03 2.72 30.17C1.65 28.81 1.67 27.4 2.63 26.01C3.31 25.02 4.05 24.07 4.81 23.14C5.89 21.84 6.29 20.42 5.85 18.75C5.6 17.81 5.43 16.86 5.28 15.9C4.99 13.94 5.58 12.87 7.4 12.12C8.36 11.72 9.35 11.41 10.35 11.11C11.94 10.64 12.98 9.65003 13.51 8.09003C13.78 7.28003 14.08 6.48003 14.39 5.68003C15.31 3.32003 16.46 2.72003 18.92 3.26003C19.96 3.49003 20.99 3.74003 22.03 3.95003C22.98 4.15003 23.8 3.94003 24.61 3.32003C25.98 2.28003 27.43 1.32003 28.9 0.410027C30.08 -0.319973 31.27 -0.0499725 32.34 0.720028C33.26 1.38003 34.15 2.09003 35.01 2.82003C36.24 3.85003 37.6 4.15003 39.15 3.77003C40.31 3.48003 41.49 3.19003 42.67 3.05003C44.31 2.85003 45.19 3.38003 45.87 4.88003C46.33 5.89003 46.72 6.93003 47.08 7.97003C47.62 9.53003 48.64 10.55 50.24 10.99C51.08 11.23 51.92 11.51 52.74 11.8C55.07 12.65 55.74 13.87 55.26 16.31C55.1 17.1 54.96 17.9 54.77 18.68C54.37 20.28 54.73 21.68 55.73 22.97C56.52 23.99 57.28 25.05 58.02 26.1C58.99 27.48 58.96 28.86 57.91 30.19C57.25 31.03 56.59 31.86 55.9 32.66C54.84 33.89 54.51 35.26 54.88 36.85C55.14 37.97 55.37 39.11 55.49 40.26C55.66 41.94 55.04 42.91 53.47 43.57C52.75 43.87 52 44.11 51.17 44.41C51.29 44.63 51.4 44.84 51.52 45.05C54.38 49.96 57.23 54.87 60.09 59.79C60.19 59.97 60.31 60.15 60.4 60.33C61.04 61.55 60.6 62.39 59.23 62.47C57.34 62.58 55.44 62.66 53.55 62.73C51.65 62.8 50.19 63.61 49.18 65.23C48.2 66.8 47.22 68.36 46.23 69.92C45.33 71.33 44.37 71.32 43.52 69.86C40.55 64.77 37.59 59.68 34.63 54.59C34.48 54.34 34.32 54.09 34.12 53.77C33.83 53.99 33.59 54.15 33.36 54.34C31.26 56.04 29.88 56.09 27.67 54.54C26.57 53.77 26.57 53.77 25.88 54.96C23.02 59.9 20.17 64.84 17.29 69.76C17.01 70.24 16.56 70.63 16.19 71.06C15.96 71.07 15.73 71.07 15.49 71.07ZM30.3 48.64C41.6 48.67 51.3 39.42 51.07 27.37C50.86 16.26 41.97 7.13003 30.5 7.07003C18.72 7.01003 9.2 16.6 9.56 28.5C9.89 39.64 18.84 48.64 30.3 48.64Z" fill="#3D3D3D"/>
<path d="M47.88 28.01C47.85 37.12 40.72 44.9 31.24 45.38C21.34 45.88 13.05 38.13 12.75 28.35C12.46 18.75 20.16 10.56 29.57 10.28C39.42 10 47.93 17.77 47.88 28.01ZM23.12 37.21C23.08 38.45 23.65 38.87 24.62 38.41C25.81 37.84 26.95 37.19 28.13 36.6C29.68 35.81 31.23 35.81 32.78 36.61C33.93 37.2 35.06 37.84 36.23 38.38C36.56 38.53 37.14 38.58 37.37 38.39C37.64 38.17 37.77 37.62 37.73 37.24C37.59 35.98 37.35 34.73 37.13 33.48C36.83 31.7 37.35 30.2 38.63 28.95C39.49 28.11 40.39 27.3 41.19 26.41C41.48 26.09 41.77 25.49 41.66 25.17C41.54 24.84 40.95 24.56 40.52 24.47C39.35 24.23 38.15 24.09 36.96 23.92C35.18 23.66 33.9 22.72 33.1 21.12C32.55 20.02 32.05 18.91 31.45 17.84C31.25 17.48 30.79 17.01 30.47 17.03C30.1 17.05 29.64 17.49 29.42 17.86C28.8 18.94 28.3 20.09 27.74 21.2C26.95 22.75 25.69 23.65 23.97 23.91C22.78 24.09 21.58 24.22 20.41 24.47C19.96 24.57 19.33 24.86 19.22 25.2C19.11 25.54 19.45 26.15 19.76 26.49C20.57 27.38 21.47 28.18 22.32 29.03C23.59 30.3 24.06 31.82 23.75 33.59C23.52 34.84 23.31 36.12 23.12 37.21Z" fill="#3D3D3D"/>
</svg>
