<svg width="14" height="8" viewBox="0 0 14 8" fill="none" xmlns="http://www.w3.org/2000/svg">
<path d="M14 4.10455C13.8548 4.3083 13.7235 4.52546 13.5615 4.71581C12.6818 5.74262 11.6513 6.60053 10.4085 7.20375C9.55954 7.61662 8.66587 7.87935 7.71634 7.96514C5.87034 8.13404 4.20307 7.66219 2.67544 6.68364C1.68402 6.04825 0.857371 5.24664 0.134051 4.34048C-0.0446838 4.11796 -0.0446838 3.87399 0.134051 3.65147C0.966288 2.60589 1.93816 1.70777 3.12507 1.03753C4.10812 0.485248 5.16098 0.131361 6.29763 0.0294838C7.95651 -0.12065 9.48693 0.249323 10.9112 1.05897C12.0898 1.72653 13.0505 2.62466 13.8743 3.66487C13.9274 3.7319 13.9581 3.81769 14 3.89276C14 3.96514 14 4.03485 14 4.10455ZM7.02932 6.82305C8.67704 6.79892 9.95891 5.52278 9.94215 3.92493C9.92539 2.41822 8.56533 1.15549 6.98464 1.17694C5.32017 1.20107 4.04389 2.4638 4.06064 4.07506C4.07461 5.58712 5.43467 6.8445 7.02932 6.82305Z" fill="white"/>
<path d="M8.58483 4.00268C8.57925 4.84719 7.85313 5.52815 6.97063 5.52011C6.11046 5.51207 5.40949 4.82306 5.41507 3.98928C5.42066 3.15014 6.14956 2.46917 7.03486 2.47721C7.88944 2.48526 8.59042 3.17694 8.58483 4.00268Z" fill="white"/>
</svg>
