<svg width="10" height="8" viewBox="0 0 10 8" fill="none" xmlns="http://www.w3.org/2000/svg">
<path d="M4.98929 1.20755C5.17567 1.02178 5.34054 0.838322 5.52453 0.680412C5.99048 0.280992 6.5329 0.0464495 7.15894 0.00464982C8.50422 -0.0859162 9.65118 0.819744 9.92836 2.07838C10.1195 2.94688 9.89013 3.72482 9.42179 4.45632C8.97017 5.15763 8.38714 5.74514 7.75392 6.28854C7.11354 6.8389 6.42776 7.33121 5.70852 7.7794C5.23779 8.07432 4.75751 8.07432 4.28678 7.77707C3.26169 7.12918 2.29156 6.41162 1.44807 5.54079C0.967783 5.04616 0.552012 4.50741 0.260495 3.88273C-0.258024 2.75879 0.00720904 1.43745 0.941498 0.629323C1.374 0.253126 1.88773 0.0487717 2.46838 0.00929424C3.47674 -0.0580497 4.25572 0.36227 4.88893 1.08912C4.92238 1.1286 4.95584 1.16807 4.98929 1.20755Z" fill="#EA0000"/>
</svg>
