<svg width="70" height="58" viewBox="0 0 70 58" fill="none" xmlns="http://www.w3.org/2000/svg">
<path d="M18.9561 29.9656C15.4 29.9656 11.8897 29.9656 8.3946 29.9656C8.16567 29.9656 7.92147 29.9962 7.69254 29.9504C7.08205 29.8283 6.73102 29.4773 6.73102 28.8362C6.73102 28.1952 7.09731 27.8442 7.7078 27.7374C7.90621 27.7068 8.13514 27.7221 8.33355 27.7221C11.5997 27.7221 14.8658 27.7221 18.1319 27.7221C18.3914 27.7221 18.6508 27.7221 18.9561 27.7221C18.9561 23.6013 18.9561 19.5263 18.9561 15.3444C18.6813 15.3444 18.4066 15.3444 18.1319 15.3444C12.6986 15.3444 7.26519 15.3444 1.8471 15.3444C1.61817 15.3444 1.37397 15.3444 1.14504 15.3292C0.458237 15.2834 0.0156326 14.856 0.000370408 14.2455C-0.0148918 13.635 0.442975 13.1619 1.09925 13.1009C1.2824 13.0856 1.48081 13.0856 1.66395 13.0856C7.72306 13.0856 13.7974 13.0703 19.8565 13.1161C20.6502 13.1161 21.2912 12.933 21.9475 12.5362C23.7637 11.4525 25.6104 10.43 27.4266 9.34636C27.8539 9.0869 28.1439 9.11742 28.5713 9.36162C36.6297 14.0319 44.7187 18.7021 52.7924 23.3418C53.1893 23.5708 53.3266 23.8302 53.3266 24.2881C53.3114 27.4321 53.3114 30.5914 53.3114 33.7354C53.3114 34.7732 53.6776 34.9869 54.5476 34.4833C56.2722 33.4912 57.9969 32.4687 59.7368 31.5071C60.3778 31.1408 60.6677 30.683 60.6677 29.9198C60.6372 26.6537 60.6372 23.3876 60.6677 20.1215C60.6677 19.6178 60.5304 19.3431 60.0725 19.0684C52.0446 14.4592 44.0472 9.81949 36.0345 5.19503C35.8361 5.07294 35.6377 4.95085 35.363 4.79822C36.004 4.41667 36.5839 4.06563 37.1792 3.71459C37.1639 3.66881 37.1486 3.60775 37.1486 3.56196C36.9045 3.56196 36.6603 3.56196 36.4161 3.56196C34.4472 3.56196 32.4631 3.56196 30.4943 3.56196C30.2196 3.56196 29.9296 3.56198 29.6549 3.48567C29.1207 3.33305 28.8613 2.92095 28.8918 2.37151C28.9223 1.80681 29.2428 1.45578 29.7923 1.34894C30.0364 1.30316 30.3112 1.31844 30.5706 1.31844C33.9131 1.31844 37.2402 1.33368 40.5826 1.30316C41.0863 1.30316 41.6052 1.07423 42.1089 0.906349C42.3683 0.814776 42.6125 0.646884 42.8415 0.494262C43.8488 -0.192538 44.8256 -0.131481 45.8786 0.479008C49.9384 2.84465 54.0134 5.17977 58.0732 7.53015C61.4309 9.46846 64.7733 11.422 68.1462 13.3298C69.2146 13.9403 69.7183 14.7644 69.703 16.016C69.6725 24.5933 69.6725 33.186 69.703 41.7634C69.703 42.9843 69.2299 43.7932 68.1768 44.4037C60.7288 48.6924 53.2808 52.9811 45.8481 57.3003C44.8256 57.8955 43.9098 57.9108 42.872 57.3003C35.424 52.9811 27.9455 48.6771 20.4823 44.3579C20.2228 44.2053 19.8871 44.0679 19.7497 43.8237C19.3834 43.2133 18.834 43.2133 18.2387 43.2133C12.7443 43.2285 7.23467 43.2133 1.74027 43.2133C1.51133 43.2133 1.26714 43.2285 1.0382 43.198C0.427713 43.1064 0.000370409 42.618 0.0156326 42.0533C0.0308949 41.4581 0.458238 41.0308 1.09925 40.985C1.32818 40.9697 1.57238 40.9697 1.80131 40.9697C7.23467 40.9697 12.668 40.9697 18.0861 40.9697C18.3608 40.9697 18.6356 40.9697 18.9713 40.9697C18.9561 37.261 18.9561 33.6591 18.9561 29.9656Z" fill="#3D3D3D"/>
<path d="M13.9806 1.2725C16.392 1.2725 18.8187 1.2725 21.2301 1.2725C21.8406 1.2725 22.3595 1.40987 22.5579 2.06614C22.7411 2.67663 22.4358 3.28713 21.8254 3.45501C21.5812 3.51606 21.3217 3.53133 21.0622 3.53133C16.3157 3.53133 11.5691 3.53133 6.83784 3.53133C6.65469 3.53133 6.45628 3.53132 6.27314 3.5008C5.63212 3.3787 5.26583 2.9361 5.32688 2.31034C5.38793 1.68459 5.75422 1.3183 6.37997 1.28778C7.12782 1.25725 7.87567 1.2725 8.63878 1.2725C10.4092 1.2725 12.1949 1.2725 13.9806 1.2725Z" fill="#3D3D3D"/>
</svg>
