<svg width="60" height="73" viewBox="0 0 60 73" fill="none" xmlns="http://www.w3.org/2000/svg">
<path d="M20.1984 40.2056C18.6857 39.0799 17.2961 38.0421 15.8714 37.0219C15.6955 36.8988 15.3789 36.8636 15.1502 36.9164C12.0017 37.6903 9.60952 36.1424 9.04665 32.9411C8.83558 31.745 8.6245 30.5314 8.4662 29.3353C8.39584 28.8604 8.2727 28.6493 7.74502 28.5789C5.98607 28.3327 5.01864 27.1894 4.98347 25.4128C4.96588 23.8473 4.96588 22.2643 4.98347 20.6988C5.00106 19.0982 5.79259 18.0076 7.34047 17.6031C7.97369 17.4448 7.88574 17.0402 7.90333 16.6357C8.39584 9.56468 11.8258 4.41094 18.246 1.50867C28.87 -3.27567 41.0771 3.84808 42.3788 15.422C42.3964 15.5803 42.4139 15.7562 42.4139 15.9145C42.3436 16.8643 42.5019 17.5151 43.6276 17.8493C44.7182 18.1659 45.3162 19.1861 45.3514 20.3822C45.3866 22.1763 45.4042 23.9705 45.3514 25.747C45.3162 27.1718 44.2608 28.3503 42.8537 28.5262C41.8687 28.6493 40.8485 28.5614 39.8635 28.6493C39.6172 28.6669 39.2654 28.9131 39.1951 29.1242C37.7703 33.9613 34.8329 37.532 30.3651 39.8362C30.2948 39.8714 30.242 39.9242 30.1189 40.0121C30.3651 40.6453 30.5938 41.3137 30.9104 41.9294C31.0335 42.1756 31.3501 42.3867 31.6316 42.5098C34.4283 43.8818 37.225 45.2186 40.0394 46.573C40.4087 46.7489 40.7605 46.9248 41.2179 47.1534C37.999 48.7365 35.5716 51.0232 34.0238 54.1717C32.4935 57.3026 32.1417 60.5918 32.898 64.0922C32.5638 64.1097 32.2824 64.1273 32.001 64.1273C21.9573 64.1273 11.9137 64.1273 1.85253 64.1273C0.21671 64.1273 -0.240613 63.5293 0.111177 61.9462C0.621273 59.6948 1.13137 57.4609 1.62388 55.2094C2.36264 51.9026 4.2623 49.5104 7.32287 48.0329C10.9111 46.3092 14.4642 44.5502 18.0877 42.8792C19.0375 42.4395 19.7235 41.8942 19.9697 40.8564C20.0225 40.6101 20.1456 40.3463 20.1984 40.2056ZM37.4009 24.1288C34.4107 23.9705 33.0211 22.792 32.3703 19.9777C32.1944 19.2037 32.0361 18.4474 31.8427 17.6734C31.526 16.3894 30.6993 15.9321 29.4857 16.4246C26.601 17.5679 23.7339 17.5679 20.8668 16.407C19.6707 15.9321 18.8616 16.3894 18.545 17.6207C18.3163 18.5881 18.1052 19.5731 17.859 20.5581C17.5776 21.7366 16.9795 22.7744 15.889 23.3197C15.0271 23.7594 14.0421 23.9881 12.9691 24.3575C13.0395 24.1992 13.0043 24.2343 13.0043 24.2871C13.1802 27.6115 14.2004 30.6545 16.1704 33.3633C16.2935 33.5216 16.6805 33.592 16.8916 33.5392C18.2284 33.117 19.5476 32.6069 20.8844 32.1848C21.3769 32.0265 21.6056 31.7802 21.7287 31.2701C22.1684 29.4056 23.9801 28.2271 25.7743 28.5789C27.3221 28.878 28.4303 30.0213 28.6941 31.5867C28.9228 32.9587 28.2016 34.4538 26.9528 35.175C25.6336 35.9489 24.1033 35.8082 22.8544 34.8232C22.6609 34.6649 22.3619 34.4714 22.186 34.5242C20.9547 34.8936 19.7411 35.3333 18.457 35.773C18.5978 35.9313 18.6505 36.0193 18.7385 36.0721C21.1482 37.9541 23.8746 38.7457 26.8824 38.2004C30.6114 37.532 33.1619 35.2102 35.0439 32.0441C36.5039 29.6343 37.225 26.9959 37.4009 24.1288ZM10.5418 17.3744C10.6121 17.4272 10.7001 17.4624 10.7704 17.5151C10.9287 17.2865 11.1574 17.093 11.2453 16.8467C11.9841 14.5249 13.0219 12.3614 14.6049 10.4969C17.9997 6.45133 22.2388 4.39336 27.586 5.39597C32.0361 6.22267 35.1495 8.98423 37.3482 12.8187C38.1045 14.1204 38.5618 15.5979 39.1599 16.9698C39.2478 17.1633 39.4413 17.3041 39.582 17.4624C39.67 17.2689 39.8283 17.093 39.8459 16.8995C39.8635 16.4422 39.8283 15.9673 39.7755 15.5275C38.8609 8.56207 33.3202 3.26763 26.302 2.66959C19.5476 2.10672 13.1802 6.45131 11.1398 13.0122C10.7001 14.4194 10.4538 15.8793 10.5418 17.3744ZM22.7489 40.874C22.5378 41.3841 22.2564 41.9646 22.0805 42.5802C22.0101 42.8089 22.0981 43.2134 22.274 43.3893C23.8394 44.8668 26.5658 44.8492 28.1137 43.3717C28.272 43.231 28.4127 42.8968 28.3423 42.7033C28.1313 42.0525 27.8322 41.4193 27.6212 40.8916C25.9502 40.874 24.4023 40.874 22.7489 40.874ZM23.171 46.96C23.8042 48.6837 24.4551 50.4427 25.1938 52.4303C25.9326 50.4251 26.5658 48.6661 27.199 46.96C25.8622 46.96 24.5782 46.96 23.171 46.96ZM13.5847 34.489C12.7404 32.6773 11.8786 30.8832 11.0519 29.1418C11.2453 30.3555 11.4212 31.6395 11.6675 32.906C11.8786 33.9262 12.5294 34.4186 13.5847 34.489Z" fill="#3D3D3D"/>
<path d="M47.339 48.4902C54.1462 48.5253 59.5461 53.9605 59.5286 60.7676C59.511 67.5572 54.023 73.0099 47.2335 72.9571C40.4791 72.922 35.0615 67.3813 35.0967 60.5917C35.1495 53.9429 40.6726 48.4726 47.339 48.4902ZM45.5625 62.2979C46.0198 61.5064 46.6179 60.8028 46.8113 60.0113C47.0928 58.7448 46.4947 57.6719 45.4394 56.9331C44.296 56.1416 43.0472 56.0888 41.8335 56.7748C40.7078 57.408 40.1449 58.4282 40.1625 59.7299C40.1801 60.3983 40.5671 60.8556 41.2531 60.9435C41.9742 61.049 42.4491 60.7149 42.6954 60.0289C42.7658 59.8002 42.7306 59.5012 42.8713 59.3429C43.0472 59.1494 43.3462 58.9911 43.5925 58.9559C43.7859 58.9383 44.1201 59.1318 44.1553 59.2901C44.1905 59.4836 44.0674 59.8178 43.8915 59.9585C42.8889 60.8204 41.8511 61.6471 40.8133 62.4738C40.3208 62.8608 40.0394 63.3181 40.2153 63.9513C40.3736 64.5318 40.7957 64.8836 41.3938 64.9011C42.8361 64.9187 44.2609 64.9363 45.7032 64.8836C46.3716 64.866 46.8113 64.4438 46.8817 63.7578C46.9521 63.0543 46.6354 62.5618 45.9319 62.3683C45.7736 62.3331 45.6504 62.3155 45.5625 62.2979ZM50.6634 59.4484C50.6634 58.8152 50.6986 58.2347 50.6459 57.6895C50.5755 56.9155 49.995 56.4054 49.3091 56.423C48.6055 56.4406 48.0954 56.9683 48.0778 57.7598C48.0602 58.5689 48.0602 59.378 48.0778 60.2047C48.0954 61.4184 48.7286 62.0517 49.9247 62.0868C50.5579 62.1044 51.1911 62.0868 51.8947 62.0868C51.8947 62.7201 51.8771 63.2302 51.8947 63.7578C51.9299 64.5845 52.4576 65.1474 53.1787 65.165C53.9175 65.1826 54.4628 64.6021 54.4804 63.7227C54.498 61.8054 54.498 59.8706 54.4804 57.9533C54.4804 57.0386 53.9879 56.4758 53.2315 56.4582C52.4576 56.4406 51.9299 57.0211 51.8947 57.9709C51.8771 58.4634 51.8947 58.9735 51.8947 59.4836C51.455 59.4484 51.1208 59.4484 50.6634 59.4484Z" fill="#3D3D3D"/>
</svg>
