<svg width="63" height="55" viewBox="0 0 63 55" fill="none" xmlns="http://www.w3.org/2000/svg">
<path d="M20.8765 47.8758C19.753 43.7831 17.1851 41.5522 13.6221 41.5843C10.8936 41.6004 7.36275 43.2374 6.43187 47.8918C5.06766 47.8918 3.67133 47.9881 2.30712 47.8597C0.942901 47.7313 0.0120372 46.5758 0.0120372 45.1955C-0.0040124 35.1324 -0.0040124 25.0693 0.0120372 15.0223C0.0120372 13.5939 1.05525 12.4543 2.48366 12.342C3.35034 12.2778 4.21703 12.3259 5.08371 12.3099C5.32446 12.3099 5.56518 12.3099 5.87013 12.3099C6.36766 16.0173 8.03683 19.0347 11.0221 21.2495C13.2369 22.9187 15.7567 23.7533 18.5493 23.7533C21.8395 23.7533 24.6963 22.6458 27.1198 20.4631C29.5272 18.2964 30.8754 15.5519 31.2927 12.326C32.8976 12.326 34.4544 12.2617 35.9952 12.342C37.4718 12.4222 38.4347 13.626 38.4347 15.1828C38.4347 21.0409 38.4347 26.899 38.4347 32.7571C38.4347 37.5077 38.4347 42.2424 38.4347 46.993C38.4347 47.2659 38.4347 47.5387 38.4347 47.8597C32.5446 47.8758 26.7025 47.8758 20.8765 47.8758Z" fill="#3D3D3D"/>
<path d="M29.5433 10.994C29.5433 17.0447 24.616 21.9558 18.5332 21.9558C12.5468 21.9558 7.57139 16.9644 7.58744 10.994C7.60349 4.94328 12.4986 0.0160496 18.5012 0C24.6321 0 29.5272 4.87908 29.5433 10.994ZM17.6666 7.10998C17.6666 8.26555 17.6184 9.43717 17.6987 10.5927C17.7308 11.0261 17.9555 11.5557 18.2604 11.8606C19.3518 12.9681 20.5234 13.9952 21.6629 15.0545C22.3049 15.6484 22.7864 15.7125 23.1876 15.2471C23.5728 14.8138 23.4926 14.3483 22.8827 13.7866C21.9037 12.8718 20.9567 11.9409 19.9456 11.0582C19.5444 10.7051 19.416 10.352 19.432 9.8384C19.4641 7.71986 19.4481 5.58526 19.432 3.46672C19.432 2.76053 19.0629 2.32718 18.5172 2.37533C17.8752 2.43953 17.6505 2.85683 17.6666 3.46672C17.6666 4.68649 17.6666 5.90626 17.6666 7.10998Z" fill="#3D3D3D"/>
<path d="M40.2644 33.2707C47.5188 33.2707 54.7251 33.2707 62.0116 33.2707C62.0116 33.5115 62.0116 33.7362 62.0116 33.9448C62.0116 37.6041 62.0116 41.2634 62.0116 44.9227C62.0116 46.8005 60.9042 47.908 59.0103 47.924C58.4486 47.924 57.8708 47.924 57.277 47.924C56.3461 43.9277 53.9387 41.5844 49.7658 41.6165C46.2509 41.6486 44.0521 43.7672 42.8163 47.8919C41.9817 47.8919 41.1472 47.8919 40.2644 47.8919C40.2644 43.0449 40.2644 38.1819 40.2644 33.2707Z" fill="#3D3D3D"/>
<path d="M60.7277 31.4251C53.8584 31.4251 47.0694 31.4251 40.2484 31.4251C40.2484 28.2954 40.2484 25.1818 40.2484 22.004C40.441 21.988 40.6496 21.9559 40.8583 21.9559C44.1484 21.9559 47.4225 21.9559 50.7127 21.9559C51.6115 21.9559 52.3498 22.2448 52.9597 22.9028C55.4955 25.6633 58.0474 28.4239 60.5832 31.1844C60.6314 31.2325 60.6474 31.2967 60.7277 31.4251Z" fill="#3D3D3D"/>
<path d="M13.6542 43.4301C16.6876 43.4462 19.1271 45.9018 19.095 48.9191C19.0789 51.8883 16.6233 54.3118 13.6221 54.3118C10.6048 54.3118 8.14917 51.8241 8.18127 48.8228C8.22941 45.8215 10.669 43.4141 13.6542 43.4301Z" fill="#3D3D3D"/>
<path d="M50.0064 43.4301C53.0077 43.4141 55.4633 45.8055 55.4794 48.7907C55.5115 51.8241 53.088 54.2957 50.0707 54.3118C47.0373 54.3278 44.5977 51.9043 44.5977 48.8709C44.6138 45.8536 47.0052 43.4462 50.0064 43.4301Z" fill="#3D3D3D"/>
</svg>
